<?xml version="1.0" encoding="iso-8859-1"?>
<!-- Generator: Adobe Illustrator 16.0.0, SVG Export Plug-In . SVG Version: 6.00 Build 0)  -->
<!DOCTYPE svg PUBLIC "-//W3C//DTD SVG 1.1//EN" "http://www.w3.org/Graphics/SVG/1.1/DTD/svg11.dtd">
<svg version="1.1" id="Capa_1" xmlns="http://www.w3.org/2000/svg" xmlns:xlink="http://www.w3.org/1999/xlink" x="0px" y="0px"
	 width="124.134px" height="124.134px" viewBox="0 0 124.134 124.134" style="enable-background:new 0 0 124.134 124.134;"
	 xml:space="preserve">
<g>
	<g>
		<circle cx="93.773" cy="12.845" r="12.845"/>
		<path d="M102.318,28.816c-0.192-0.118-0.396-0.199-0.598-0.288c-1.447-0.964-3.08-1.685-4.748-2.093l-3.199,3.221L90.67,26.4
			c-0.011,0.002-0.021,0.003-0.03,0.006c-1.673,0.4-3.312,1.116-4.768,2.093c-0.223,0.095-0.445,0.188-0.657,0.317
			c-6.17,3.785-20.272,16.034-20.871,16.553c-0.525,0.457-0.93,1-1.215,1.59c-1.728-1.767-3.468-3.006-3.468-3.006L39.6,64.016
			L21.343,55.97c-0.698-0.307-1.51-0.167-2.064,0.354c-0.554,0.521-0.742,1.325-0.479,2.039l7.143,19.308L4.91,98.704
			c9.019,9.019,21.354,12.698,33.082,11.044c-6.6,10.736-6.059,11.734-5.57,12.624c0.357,0.655,1.047,1.062,1.799,1.062H71.54
			c0.569,0,1.108-0.256,1.468-0.695c0.361-0.44,0.504-1.019,0.391-1.576l-6.414-31.741c5.889-11.077,7.043-23.871,1.026-35.337
			c1.028-0.08,2.043-0.46,2.882-1.19c1.982-1.725,5.834-5.007,9.736-8.183v21.242c0,1.342,0.26,2.594,0.716,3.744
			c-0.034,0.26-0.059,0.521-0.059,0.791l0.004,47.752c0,3.254,2.639,5.894,5.894,5.893c3.256-0.001,5.895-2.639,5.894-5.895
			l-0.003-40.98c0.232,0.012,0.467,0.03,0.701,0.03c0.047,0,0.092-0.005,0.139-0.007l-0.002,40.959c0,3.254,2.639,5.894,5.895,5.894
			l0,0c3.254,0,5.893-2.64,5.893-5.894l0.002-47.643c0.092-0.178,0.175-0.359,0.257-0.543c0.376,0.09,0.757,0.145,1.138,0.145
			c1.641,0,3.245-0.807,4.198-2.289c2.808-4.36,7.563-12.307,7.911-16.545C119.781,44.259,107.609,32.063,102.318,28.816z
			 M28.895,74.719l-4.984-13.474l12.813,5.646L28.895,74.719z M69.221,119.643H36.712c1.258-2.486,3.849-6.865,6.436-10.986
			c6.209-1.752,12.073-5.063,16.958-9.951c1.458-1.456,2.772-3,3.95-4.614L69.221,119.643z M93.745,55.079l-3.097-4.239
			l3.097-20.707h0.062l3.098,20.707l-3.098,4.239H93.745z M106.921,55.704v-8.648c1.139,1.537,1.967,2.889,2.27,3.756
			C108.916,51.767,108.068,53.568,106.921,55.704z"/>
	</g>
</g>
<g>
</g>
<g>
</g>
<g>
</g>
<g>
</g>
<g>
</g>
<g>
</g>
<g>
</g>
<g>
</g>
<g>
</g>
<g>
</g>
<g>
</g>
<g>
</g>
<g>
</g>
<g>
</g>
<g>
</g>
</svg>
